<?xml version="1.0" encoding="UTF-8" standalone="no"?>
<!DOCTYPE svg PUBLIC "-//W3C//DTD SVG 1.1//EN" "http://www.w3.org/Graphics/SVG/1.1/DTD/svg11.dtd">
<!-- Created with Vectornator (http://vectornator.io/) -->
<svg height="1024.0px" stroke-miterlimit="10"
    style="fill-rule:nonzero;clip-rule:evenodd;stroke-linecap:round;stroke-linejoin:round;" version="1.1"
    viewBox="0 0 1024 1024" width="1024.0px" xml:space="preserve" xmlns="http://www.w3.org/2000/svg"
    xmlns:xlink="http://www.w3.org/1999/xlink">
    <defs>
        <path
            d="M784.445 198.05C786.419 197.278 787.741 194.718 789.861 194.718C791.76 194.718 792.179 199.231 792.361 199.717C794.687 205.92 797.89 215.394 796.527 222.213C796.301 223.342 790.981 233.331 789.028 231.378C788.439 230.789 788.655 229.624 789.028 228.879C789.649 227.637 791.493 227.464 792.361 226.379C794.886 223.222 796.837 220.563 797.36 216.381C798.419 207.906 794.454 202.225 788.195 197.217C786.584 195.929 786.028 194.009 783.195 194.718C781.99 195.019 783.892 197.274 784.862 198.05C785.644 198.676 786.653 199.009 787.361 199.717C789.838 202.194 792.376 206.414 794.027 209.715C795.422 212.506 797.593 216.712 798.193 219.714C798.302 220.258 798.193 220.824 798.193 221.38C798.193 222.213 798.193 224.713 798.193 223.88C798.193 217.006 798.611 209.612 794.027 203.883C791.251 200.413 787.479 198.288 783.195 197.217C782.656 197.082 781.002 197.042 781.529 197.217C782.872 197.665 784.156 198.163 784.445 198.05Z"
            id="Fill" />
        <path
            d="M777.78 199.3C776.97 199.3 779.606 201.318 779.863 200.55C780.179 199.6 777.748 198.946 778.196 198.05C778.947 196.548 790.455 204.691 791.527 205.549C792.975 206.707 795.576 208.964 796.527 210.548C797.116 211.53 796.503 214.691 795.693 213.881C794.636 212.824 794.857 210.96 794.027 209.715C791.111 205.341 782.327 195.316 778.196 192.218C776.237 190.748 770.747 192.022 773.197 194.718C775.71 197.482 778.837 199.3 777.78 199.3Z"
            id="Fill_2" />
        <path
            d="M790.278 203.466C792.241 204.448 784.51 198.915 786.528 198.05C788.936 197.018 791.516 200.204 793.194 202.216C795.819 205.367 797.192 209.38 799.026 213.048C799.461 213.918 800.616 217.746 799.859 218.88C799.515 219.397 798.537 220.23 798.193 219.714C796.984 217.901 798.193 210.389 798.193 208.049C798.193 206.382 798.193 203.05 798.193 203.05C798.193 203.05 798.193 205.271 798.193 206.382C798.193 209.498 798.077 211.846 797.36 214.714C797.082 215.825 797.336 218.857 796.527 218.047C794.104 215.625 795.693 206.798 795.693 203.883C795.693 202.772 795.693 201.661 795.693 200.55C795.693 199.994 795.693 198.328 795.693 198.884C795.693 203.26 797.467 207.857 798.193 212.215C798.464 213.839 798.623 216.436 799.026 218.047C799.177 218.65 799.859 220.335 799.859 219.714C799.859 215.495 799.023 209.697 798.193 205.549C797.862 203.893 797.36 202.239 797.36 200.55C797.36 199.994 797.36 198.328 797.36 198.884C797.36 203.964 798.193 208.905 798.193 213.881C798.193 214.992 798.193 216.103 798.193 217.214C798.193 217.769 798.193 219.436 798.193 218.88C798.193 213.972 797.322 209.944 798.193 204.716C798.471 203.05 798.695 201.373 799.026 199.717C799.135 199.172 799.026 197.495 799.026 198.05C799.026 200.956 797.917 201.931 797.36 204.716C797.251 205.261 797.869 206.605 797.36 206.382C792.689 204.339 787.812 202.233 790.278 203.466Z"
            id="Fill_3" />
        <path
            d="M797.776 780.04C797.776 778.723 798.217 784.83 799.026 783.79C800.598 781.769 800.019 778.761 800.693 776.291C801.48 773.405 803.003 770.77 804.025 767.959C804.325 767.134 804.859 764.581 804.859 765.459C804.859 772.962 802.272 780.497 801.526 787.956C801.248 790.733 801.039 793.518 800.693 796.288C800.517 797.693 800.861 801.455 799.859 800.454C798.092 798.686 799.859 795.455 799.859 792.955C799.859 786.483 799.664 780.171 799.026 773.791C798.803 771.563 798.193 769.365 798.193 767.126C798.193 766.57 798.193 764.904 798.193 765.459C798.193 770.492 799.93 775.669 801.526 780.457C802.081 782.123 802.848 783.734 803.192 785.456C803.301 786.001 803.192 787.678 803.192 787.123C803.192 782.342 802.292 778.389 801.526 773.791C801.293 772.395 801.694 768.624 800.693 769.625C798.701 771.617 800.094 778.11 799.859 780.457C799.548 783.567 800.081 799.529 799.026 801.287C795.8 806.664 783.719 798.567 779.863 797.121C779.061 796.82 771.008 794.099 774.03 797.121C775.93 799.021 781.661 797.954 784.029 797.954C790.709 797.954 797.661 798.647 799.026 790.455C799.811 785.745 799.026 780.229 799.026 775.458C799.026 773.514 799.026 771.57 799.026 769.625C799.026 769.07 799.026 767.404 799.026 767.959C799.026 777.275 801.945 792.639 795.693 800.454C792.151 804.881 783.234 801.054 779.029 800.454C777.627 800.254 774.863 801.037 774.863 799.621C774.863 798.51 777.118 799.89 778.196 799.621C779.57 799.277 780.96 798.988 782.362 798.787C787.901 797.996 794.628 796.752 797.36 791.289C799.337 787.334 798.193 781.417 798.193 777.124C798.193 776.013 798.193 774.902 798.193 773.791C798.193 772.68 798.193 769.348 798.193 770.459C798.193 781.852 806.22 801.287 788.195 801.287C787.122 801.287 781.763 801.998 780.696 801.287C777.726 799.307 788.968 795.657 790.694 794.621C797.784 790.367 799.026 784.885 799.026 777.124C799.026 776.347 799.29 772.673 798.193 772.125C796.866 771.462 797.296 782.447 797.36 782.957C798.107 788.933 800.515 802.289 791.527 803.787C790.705 803.924 789.773 804.159 789.028 803.787C788.472 803.509 787.998 802.709 788.195 802.12C788.391 801.531 789.422 801.726 789.861 801.287C793.479 797.669 795.967 793.827 796.527 788.789C796.925 785.201 796.527 781.568 796.527 777.957C796.527 777.124 796.287 774.66 796.527 775.458C797.591 779.007 797.776 782.712 797.776 780.04Z"
            id="Fill_4" />
        <path
            d="M507.406 495.919C505.082 496.849 502.368 495.041 499.907 495.503C498.782 495.714 501.253 497.811 500.741 498.835C498.51 503.297 493.226 508.573 489.909 512.167C479.95 522.956 469.251 534.145 458.247 543.828C439.512 560.316 420.452 576.485 402.423 593.82C373.367 621.759 345.66 650.96 316.603 678.807C296.758 697.825 275.234 715.177 255.78 734.631C251.605 738.806 248.29 743.787 244.115 747.962C237.225 754.852 229.665 761.402 222.452 767.959C216.554 773.321 212.221 779.856 206.621 785.456C206.168 785.909 196.172 794.171 196.623 794.621C198.099 796.098 208.982 784.762 210.787 782.957C224.651 769.092 239.058 755.609 252.447 741.297C301.739 688.605 351.967 637.021 404.923 587.988C411.734 581.681 419.6 576.603 426.586 570.491C434.859 563.252 442.075 554.842 450.749 547.994C459.916 540.757 468.344 533.732 476.578 525.498C480.615 521.461 485.432 518.857 489.909 515.499C492.086 513.866 493.564 511.3 495.741 509.667C497.902 508.047 499.799 506.054 501.574 503.835C502.31 502.915 505.252 501.335 504.073 501.335C500.828 501.335 487.916 513.508 485.743 515.499C470.245 529.706 455.845 545.022 440.75 559.659C427.492 572.516 414.009 585.161 400.757 597.986C383.136 615.038 367.515 634.277 350.765 652.144C321.597 683.257 292.876 714.809 263.279 745.463C243.799 765.638 224.551 786.272 205.788 807.119C204.482 808.571 192.685 822.117 191.624 822.117C191.002 822.117 192.069 820.936 192.457 820.451C193.193 819.53 194.189 818.846 194.956 817.951C197.001 815.565 199.52 813.621 201.622 811.285C207.173 805.118 212.843 798.472 218.286 792.122C233.881 773.928 249.081 755.183 264.945 737.131C288.41 710.429 312.701 684.315 337.433 658.81C354.778 640.924 373.68 624.466 391.591 607.151C403.66 595.485 415.526 583.961 428.252 572.99C447.675 556.247 466.707 539.297 485.743 522.165C491.24 517.218 497.563 511.871 502.407 506.334C504.093 504.407 505.767 502.469 507.406 500.502C508.412 499.295 510.739 495.598 510.739 497.169C510.739 500.034 498.657 508.797 496.575 510.5C480.422 523.716 464.329 537.004 449.082 551.327C416.165 582.249 383.983 614.075 351.598 645.479C333.559 662.971 314.93 679.898 297.44 697.97C277.656 718.413 259.239 740.338 239.116 760.46C234.386 765.19 228.947 769.163 224.118 773.791C219.446 778.269 215.909 783.964 211.62 788.789C209.507 791.167 207.002 794.015 204.122 795.455C203.566 795.732 202.455 796.288 202.455 796.288C202.455 796.288 206.452 793.651 208.288 792.122C210.773 790.051 211.254 788.903 213.287 786.289C219.683 778.066 226.923 770.481 234.117 762.96C250.16 746.187 265.44 728.843 281.609 712.135C326.674 665.568 371.264 618.307 419.92 575.49C428.87 567.614 436.28 558.65 444.916 550.494C454.099 541.821 464.295 534.448 473.245 525.498C476.644 522.099 480.153 517.469 484.077 514.666C486.209 513.143 488.77 512.226 490.742 510.5C493.553 508.041 496.192 506.141 499.074 503.835C499.688 503.344 501.296 501.613 500.741 502.168C468.536 534.373 434.301 564.543 401.59 596.32C367.367 629.565 333.935 663.664 300.773 697.97C280.949 718.477 262.033 739.787 242.449 760.46C236.438 766.805 229.646 772.034 224.118 778.791C221.767 781.664 219.242 785.334 216.62 787.956C215.786 788.789 214.12 791.634 214.12 790.455C214.12 785.536 229.4 772.675 232.45 769.625C249.624 752.452 265.818 734.034 282.442 716.301C334.685 660.575 388.877 606.482 445.749 555.493C460.581 542.196 476.248 529.106 491.575 516.333C498.399 510.646 504.725 506.183 510.739 499.669C515.279 494.75 520.521 490.51 525.737 486.337C529.91 482.999 531.244 482.679 530.736 482.171C529.616 481.051 520.944 488.89 519.904 489.67C518.861 490.453 514.823 494.493 514.072 494.669C510.277 495.562 508.623 495.433 507.406 495.919Z"
            id="Fill_5" />
        <path
            d="M504.073 498.835C504.751 497.912 505.901 494.935 504.907 495.503C502.178 497.062 500.463 499.946 498.241 502.168C490.187 510.223 481.966 518.114 474.078 526.331C463.333 537.524 452.286 546.86 440.75 557.159C432.985 564.093 425.979 571.845 418.254 578.823C389.385 604.897 361.196 632.534 334.101 660.476C310.123 685.203 288.486 711.924 264.112 736.297C257.849 742.56 252.404 749.591 246.615 756.294C239.522 764.507 230.421 770.635 223.285 778.791C218.111 784.703 213.403 791.153 208.288 797.121C207.009 798.612 205.693 800.109 204.122 801.287C203.625 801.66 202.177 802.676 202.455 802.12C205.09 796.851 212.21 793.557 215.786 788.789C231.52 767.811 250.188 748.181 268.278 728.799C313.482 680.366 359.255 631.832 408.255 587.155C417.138 579.056 426.943 572.004 435.751 563.825C451.301 549.386 466.916 534.938 483.243 521.332C492.977 513.221 502.946 505.578 512.405 497.169C516.346 493.667 518.277 493.875 517.405 493.003C516.323 491.921 513.591 495.15 513.239 495.503C509.371 499.37 505.658 503.537 501.574 507.167C481.589 524.932 461.513 542.625 441.583 560.492C386.429 609.941 333.99 661.42 281.609 713.801C264.952 730.458 249.625 748.596 232.45 764.626C227.421 769.32 222.58 774.256 218.286 779.624C216.442 781.929 214.298 783.984 212.454 786.289C212.066 786.774 210.999 787.956 211.62 787.956C213.584 787.956 214.482 785.258 215.786 783.79C221.068 777.848 225.975 771.935 231.617 766.293C248.947 748.963 266.044 731.188 282.442 712.968C293.223 700.99 304.178 689.14 314.937 677.14C330.531 659.748 345.896 642.015 362.429 625.482C371.743 616.168 382.136 607.988 391.591 598.819C409.577 581.379 427.45 563.423 446.583 547.161C458.75 536.819 470.981 526.552 483.243 516.333C491.906 509.113 499.755 504.72 504.073 498.835Z"
            id="Fill_6" />
        <path
            d="M502.407 504.251C502.522 507.328 497.988 500.088 495.741 498.002C488.54 491.315 481.307 484.663 474.078 478.005C463.36 468.134 452.723 458.317 442.417 448.01C429.233 434.827 415.315 422.303 402.423 408.85C383.387 388.986 365.616 367.908 346.599 348.026C334.135 334.996 320.585 322.857 307.438 310.532C284.433 288.965 262.022 266.867 237.45 247.209C230.547 241.687 226.535 235.462 220.786 229.712C219.303 228.229 217.169 227.39 215.786 225.546C213.701 222.765 213.26 218.854 210.787 216.381C209.954 215.548 207.109 213.881 208.288 213.881C210.251 213.881 211.065 216.658 212.454 218.047C214.968 220.562 217.966 222.544 220.786 224.713C236.642 236.91 250.286 252.008 264.945 265.54C292.449 290.927 320.57 316.13 346.599 343.027C369.154 366.335 390.426 390.854 412.421 414.682C423.402 426.578 433.998 439.412 445.749 450.51C453.777 458.091 462.095 465.189 469.912 473.006C476.716 479.81 484.218 486.039 491.575 492.17C494.221 494.374 495.766 495.932 498.241 497.169C498.944 497.52 499.279 498.364 499.907 498.835C500.404 499.208 501.852 500.224 501.574 499.669C498.679 493.879 489.316 485.312 484.91 480.505C474.215 468.838 463.79 456.518 452.415 445.511C447.89 441.132 442.771 437.396 438.251 433.013C407.398 403.095 379.146 370.413 348.265 340.528C344.022 336.421 339.182 332.964 334.934 328.863C327.582 321.764 321.33 313.593 314.104 306.366C305.632 297.895 296.504 290.114 288.275 281.37C282.584 275.324 277.734 268.692 271.611 263.04C264.821 256.772 257.271 251.2 250.781 244.71C244.099 238.028 236.899 229.854 228.284 225.546C226.074 224.441 223.665 222.744 221.619 221.38C220.965 220.944 220.508 220.269 219.952 219.714C219.397 219.158 217.935 217.345 218.286 218.047C223.014 227.503 235.259 234.187 242.449 241.377C254.043 252.971 266.307 263.461 278.276 274.705C295.49 290.875 312.691 306.937 329.935 323.03C338.15 330.698 347.411 337.176 355.764 344.694C380.987 367.394 406.404 391.021 429.919 415.515C436.324 422.188 441.709 429.805 448.249 436.345C453.248 441.345 458.721 445.912 463.247 451.343C468.293 457.398 472.907 463.851 478.244 469.673C483.681 475.604 489.637 482.868 496.575 486.337C499.902 488.001 500.323 491.058 502.407 493.836C502.878 494.465 504.073 495.503 504.073 495.503C504.073 495.503 498.519 492.17 495.741 490.503C495.209 490.184 493.636 489.231 494.075 489.67C495.554 491.149 498.181 493.375 499.907 494.669C500.404 495.042 501.574 496.124 501.574 495.503C501.574 493.573 491.082 485.342 489.076 483.838C488.082 483.093 486.621 481.293 485.743 482.171C484.947 482.967 491.087 488.185 491.575 488.837C492.368 489.893 494.908 492.478 494.908 493.836C494.908 495.252 494.398 497.554 495.741 498.002C496.331 498.199 496.725 496.938 496.575 496.336C495.956 493.862 489.735 488.663 488.243 487.171C486.299 485.227 484.412 483.223 482.41 481.338C479.689 478.777 476.784 476.416 474.078 473.839C460.814 461.207 448.094 447.365 435.751 433.846C397.349 391.787 356.044 352.473 315.77 312.199C302.014 298.442 286.235 286.83 272.444 273.038C263.601 264.195 253.055 256.667 244.948 247.209C239.011 240.282 232.323 233.751 225.785 227.212C223.594 225.022 223.194 221.72 220.786 219.714C218.781 218.043 204.122 206.156 204.122 204.716C204.122 201.899 208.884 205.584 210.787 207.216C214.543 210.435 217.213 214.729 220.786 218.047C229.422 226.067 238.07 233.994 246.615 242.21C268.574 263.325 290.102 284.852 312.437 305.533C319.648 312.21 325.781 319.964 332.434 327.196C339.348 334.712 347.171 341.356 354.097 348.86C360.105 355.368 365.466 362.462 371.595 368.856C400.129 398.631 429.318 427.906 457.414 458.009C469.249 470.689 481.834 482.428 494.075 494.669C495.997 496.591 503.24 502.234 503.24 505.501C503.24 506.287 502.077 504.438 501.574 503.835C500.685 502.768 499.989 501.547 499.074 500.502C498.04 499.32 496.792 498.337 495.741 497.169C489.956 490.741 483.928 484.542 478.244 478.005C460.411 457.497 443.425 436.277 424.919 416.349C417.568 408.432 409.089 401.629 401.59 393.852C382.387 373.938 364.073 353.068 344.099 333.862C323.252 313.817 302.131 294.241 282.442 273.038C274.782 264.789 265.348 258.444 257.446 250.542C250.358 243.454 246.35 233.386 237.45 228.046C231.583 224.526 226.987 218.648 220.786 215.548C218.16 214.235 216.467 213.142 214.12 211.382C213.623 211.009 212.109 210.032 212.454 210.548C216.061 215.959 222.755 220.408 227.451 224.713C233.674 230.417 239.808 236.236 245.781 242.21C267.339 263.767 289.279 284.747 311.604 305.533C319.224 312.627 325.906 320.668 333.267 328.03C368.305 363.067 402.402 398.788 436.584 434.679C446.049 444.617 456.51 453.751 464.913 464.674C468.461 469.286 471.076 474.271 475.745 478.005C482.199 483.169 487.51 488.971 492.409 495.503C495.583 499.735 502.235 499.664 502.407 504.251Z"
            id="Fill_7" />
        <path
            d="M793.194 797.538C794.518 797.096 788.254 796.793 789.028 797.954C789.965 799.36 794.027 797.098 794.027 798.787C794.027 800.477 790.712 799.491 789.028 799.621C784.874 799.94 780.688 799.361 776.53 799.621C772.363 799.881 768.207 800.454 764.032 800.454C761.254 800.454 757.664 798.49 755.7 800.454C755.261 800.893 756.777 801.091 757.366 801.287C761.651 802.715 766.254 802.12 770.697 802.12C777.892 802.12 784.443 801.162 791.527 800.454C792.909 800.316 794.315 800.626 795.693 800.454C796.565 800.345 799.008 799.947 798.193 799.621C794.753 798.244 791.049 798.252 793.194 797.538Z"
            id="Fill_8" />
        <path
            d="M228.284 783.79C231.217 783.203 230.737 778.317 231.617 775.458C231.862 774.661 232.408 772.695 231.617 772.958C222.241 776.084 224.991 790.489 230.784 795.455C233.849 798.082 241.971 799.74 245.781 798.787C247.724 798.302 249.063 796.485 250.781 795.455C251.313 795.135 252.886 795.061 252.447 794.621C251.846 794.02 240.525 800.942 236.616 800.454C229.658 799.584 223.458 786.777 226.618 780.457C226.906 779.882 231.924 773.791 232.45 773.791C233.839 773.791 230.933 776.142 229.951 777.124C228.969 778.106 227.747 778.976 227.451 780.457C226.391 785.757 225.332 790.772 229.951 794.621C233.52 797.596 241.302 799.234 245.781 797.954C246.267 797.816 252.609 793.95 251.614 792.955C249.803 791.144 243.723 796.594 241.615 797.121C234.049 799.013 218.128 798.903 219.952 787.956C220.731 783.284 225.584 778.646 229.118 776.291C230.784 775.18 232.553 774.209 234.117 772.958C234.73 772.467 236.569 771.292 235.783 771.292C234.782 771.292 234.179 772.51 233.284 772.958C227.962 775.619 220.831 780.592 223.285 787.956C225.198 793.693 234.111 798.094 239.949 797.121C240.815 796.977 241.633 796.614 242.449 796.288C242.559 796.244 247.925 793.61 246.615 792.955C245.121 792.208 242.015 795.671 240.782 796.288C238.262 797.548 231.122 797.932 228.284 797.121C224.578 796.062 220.723 793.469 217.453 791.289C214.436 789.278 215.849 790.07 213.287 788.789C212.731 788.511 211.898 787.4 211.62 787.956C209.264 792.668 225.438 792.955 227.451 792.955C228.84 792.955 230.242 793.151 231.617 792.955C232.232 792.867 233.839 792.4 233.284 792.122C231.16 791.06 222.4 791.632 219.952 792.122C218.829 792.346 216.257 794.041 216.62 792.955C216.992 791.837 218.286 791.289 219.119 790.455C219.267 790.307 228.809 781.576 223.285 782.957C221.204 783.477 213.976 792.591 212.454 794.621C211.982 795.25 210.232 795.732 210.787 796.288C211.869 797.369 214.601 794.141 214.953 793.788C218.74 790.002 221.484 785.9 224.118 781.29C226.128 777.773 227.468 777.407 226.618 777.124C221.734 775.496 215.264 789.262 214.12 792.122C213.901 792.669 212.059 795.893 212.454 796.288C213.009 796.843 213.649 795.25 214.12 794.621C215.118 793.291 222.875 782.957 223.285 782.957C224.527 782.957 222.562 785.481 221.619 786.289C220.652 787.118 211.079 797.238 214.953 798.787C217.317 799.733 220.572 797.927 222.452 797.121C225.317 795.893 223.197 796.96 224.952 794.621C228.767 789.534 219.561 793.487 217.453 793.788C216.051 793.988 213.287 793.205 213.287 794.621C213.287 796.766 228.284 794.68 228.284 793.788C228.284 792.182 219.952 792.062 219.952 790.455C219.952 789.039 223.4 792.509 224.118 791.289C226.838 786.665 225.818 784.283 228.284 783.79Z"
            id="Fill_9" />
        <path
            d="M214.953 801.287C214.953 803.309 211.103 802.557 209.121 802.953C208.512 803.075 210.175 802.227 210.787 802.12C216.592 801.111 222.441 800.375 228.284 799.621C236.803 798.521 245.546 798.405 254.113 797.954C258.551 797.721 263.001 797.954 267.445 797.954C268.556 797.954 269.682 797.772 270.777 797.954C271.39 798.056 273.046 798.637 272.444 798.787C264.661 800.733 254.574 799.621 246.615 799.621C233.839 799.621 221.063 799.621 208.288 799.621C207.454 799.621 209.962 799.503 210.787 799.621C211.921 799.783 212.984 800.312 214.12 800.454C215.222 800.592 218.446 799.957 217.453 800.454C215.404 801.478 214.953 799.323 214.953 801.287Z"
            id="Fill_10" />
        <linearGradient gradientTransform="matrix(1 0 0 1 0 -8.88178e-15)" gradientUnits="userSpaceOnUse"
            id="LinearGradient" x1="193.118" x2="833.095" y1="497.551" y2="497.551">
            <stop offset="0" stop-color="#73cafd" stop-opacity="0.503077" />
            <stop offset="1" stop-color="#ec66fe" stop-opacity="0.749075" />
        </linearGradient>
        <linearGradient gradientTransform="matrix(15.173 0 0 15.1541 20.7045 13.1753)" gradientUnits="userSpaceOnUse"
            id="LinearGradient_2" x1="32.293" x2="32.293" y1="5.667" y2="58.171">
            <stop offset="0" stop-color="#1a6dff" />
            <stop offset="1" stop-color="#c822ff" />
        </linearGradient>
        <linearGradient gradientTransform="matrix(1 0 0 1 0 0)" gradientUnits="userSpaceOnUse" id="LinearGradient_3"
            x1="272.864" x2="779.352" y1="498.107" y2="498.107">
            <stop offset="0" stop-color="#6dc7ff" />
            <stop offset="1" stop-color="#e6abff" />
        </linearGradient>
        <path
            d="M218.018 182.637C218.018 161.959 234.781 145.197 255.459 145.197C276.136 145.197 292.899 161.959 292.899 182.637C292.899 203.315 276.136 220.077 255.459 220.077C234.781 220.077 218.018 203.315 218.018 182.637Z"
            id="Fill_11" />
        <path
            d="M214.822 817.299C214.822 794.856 233.016 776.662 255.459 776.662C277.902 776.662 296.096 794.856 296.096 817.299C296.096 839.742 277.902 857.936 255.459 857.936C233.016 857.936 214.822 839.742 214.822 817.299Z"
            id="Fill_12" />
        <path
            d="M432.078 500.502C432.078 471.683 455.441 448.32 484.26 448.32C513.079 448.32 536.441 471.683 536.441 500.502C536.441 529.321 513.079 552.683 484.26 552.683C455.441 552.683 432.078 529.321 432.078 500.502Z"
            id="Fill_13" />
        <path
            d="M728.552 182.637C728.552 161.79 745.452 144.891 766.299 144.891C787.145 144.891 804.045 161.79 804.045 182.637C804.045 203.484 787.145 220.383 766.299 220.383C745.452 220.383 728.552 203.484 728.552 182.637Z"
            id="Fill_14" />
        <path
            d="M722.981 817.299C722.981 793.376 742.375 773.982 766.299 773.982C790.222 773.982 809.616 793.376 809.616 817.299C809.616 841.223 790.222 860.617 766.299 860.617C742.375 860.617 722.981 841.223 722.981 817.299Z"
            id="Fill_15" />
    </defs>
    <g id="Capa-1">
        <path
            d="M688.314 740.572L727.612 664.802L818.65 664.802L807.759 861.344L548.256 879.596L225.899 869.924L196.637 794.949L421.234 498.092L196.467 186.991L224.543 135.201L238.764 108.969L773.131 104.1L823.846 154.75L809.698 301.103L720.176 307.173L688.314 255.641L383.455 247.56C383.455 247.56 565.744 503.337 565.744 503.337L410.422 740.572"
            fill="url(#LinearGradient)" fill-rule="nonzero" opacity="1" stroke="#000000" stroke-linecap="butt"
            stroke-linejoin="round" stroke-opacity="0" stroke-width="86.9584" />
        <path
            d="M773.131 892.114L257.266 892.114C228.225 892.114 202.173 875.974 189.291 849.97C176.409 823.966 179.322 793.475 196.923 770.396L383.626 525.657C395.992 509.457 395.992 486.787 383.626 470.541L196.908 225.803C179.307 202.738 176.379 172.248 189.261 146.243C202.158 120.239 228.225 104.1 257.266 104.1L773.131 104.1C813.628 104.1 840.044 135.969 840.044 179.87L840.044 301.103C840.044 327.471 827.739 331.412 818.65 331.412L727.612 331.412C712.454 331.412 688.314 319.879 688.314 301.103L688.314 255.641L410.407 255.641L560.361 452.175C580.981 479.225 580.981 516.989 560.376 544.024L410.422 740.572L688.314 740.572L688.314 740.572L688.314 695.11C688.314 676.334 712.454 664.802 727.612 664.802L818.65 664.802C827.754 664.802 840.044 668.742 840.044 695.11L840.044 816.343C840.044 860.244 813.628 892.114 773.131 892.114ZM257.266 134.408C239.574 134.408 224.325 143.864 216.481 159.7C208.637 175.536 210.351 193.388 221.063 207.421L407.782 452.159C428.386 479.21 428.386 516.974 407.782 544.024L221.078 788.763C210.351 802.826 208.637 820.662 216.481 836.498C224.325 852.334 239.574 861.805 257.266 861.805L773.131 861.805C800.306 861.805 809.698 838.241 809.698 816.343L809.698 695.11L727.612 695.11C726.11 695.11 718.66 696.292 718.66 697.429L718.66 740.572C718.66 766.941 706.355 770.881 697.266 770.881L410.407 770.881C398.784 770.881 388.391 764.425 383.232 754.044C378.073 743.664 379.226 731.465 386.266 722.221L536.221 525.642C548.587 509.442 548.587 486.771 536.221 470.526L386.282 273.993C379.226 264.749 378.073 252.55 383.232 242.154C388.391 231.758 398.784 225.333 410.407 225.333L697.266 225.333C706.37 225.333 718.66 229.273 718.66 255.641L718.66 298.77C718.66 299.906 726.11 301.103 727.612 301.103L809.698 301.103L809.698 179.87C809.698 157.973 800.306 134.408 773.131 134.408L257.266 134.408Z"
            fill="url(#LinearGradient_2)" fill-rule="nonzero" opacity="1" stroke="none" />
        <path
            d="M757.958 831.497L318.367 831.497C300.964 831.497 285.351 821.814 277.628 806.235C269.905 790.672 271.665 772.411 282.225 758.591L459.886 525.657C472.267 509.442 472.267 486.756 459.901 470.526L282.21 237.608C271.68 223.787 269.905 205.526 277.628 189.948C285.351 174.37 300.979 164.716 318.367 164.716L757.958 164.716C767.062 164.716 779.352 168.656 779.352 195.025L779.352 270.795L749.006 270.795L749.006 195.025L318.367 195.025C312.495 195.025 307.428 198.161 304.833 203.42C302.223 208.663 302.785 214.573 306.35 219.241L484.041 452.159C504.661 479.21 504.661 516.989 484.026 544.039L306.366 776.973C302.8 781.64 302.239 787.535 304.833 792.794C307.428 798.052 312.495 801.189 318.367 801.189L749.006 801.189L749.006 725.418L779.352 725.418L779.352 801.189C779.352 827.557 767.047 831.497 757.958 831.497Z"
            fill="url(#LinearGradient_3)" fill-rule="nonzero" opacity="0" stroke="none" />
    </g>
    <g id="Arrows">
        <path d="M255.459 817.299C255.459 817.299 447.865 567.932 512 483.606" fill="none" opacity="1" stroke="#000000"
            stroke-linecap="butt" stroke-linejoin="round" stroke-width="19.4188" />
        <path d="M766.299 817.299L255.459 817.299" fill="none" opacity="1" stroke="#000000" stroke-linecap="butt"
            stroke-linejoin="round" stroke-width="19.4188" />
        <path d="M766.299 182.637L255.459 182.637" fill="none" opacity="1" stroke="#000000" stroke-linecap="butt"
            stroke-linejoin="round" stroke-width="19.4188" />
        <path d="M255.459 182.637L512 512" fill="none" opacity="1" stroke="#000000" stroke-linecap="butt"
            stroke-linejoin="round" stroke-width="19.4188" />
        <path d="M555.516 786.224L555.516 848.375L502.783 817.299L555.516 786.224Z" fill="#000000" fill-rule="nonzero"
            opacity="1" stroke="none" />
        <path d="M563.409 151.562L563.409 213.712L510.677 182.637L563.409 151.562Z" fill="#000000" fill-rule="nonzero"
            opacity="1" stroke="none" />
        <path d="M342.979 346.79L390.887 307.198L400.525 367.643L342.979 346.79Z" fill="#000000" fill-rule="nonzero"
            opacity="1" stroke="none" />
        <path d="M391.043 690.333L343.119 650.761L400.656 629.885L391.043 690.333Z" fill="#000000" fill-rule="nonzero"
            opacity="1" stroke="none" />
    </g>
    <g id="Circles">
        <g opacity="1">
            <use fill="#ff0000" fill-rule="nonzero" stroke="none" xlink:href="#Fill_11" />
            <mask height="112.266" id="StrokeMask_11" maskUnits="userSpaceOnUse" width="112.266" x="199.325"
                y="126.504">
                <rect fill="#ffffff" height="112.266" stroke="none" width="112.266" x="199.325" y="126.504" />
                <use fill="#000000" fill-rule="evenodd" stroke="none" xlink:href="#Fill_11" />
            </mask>
            <use fill="none" mask="url(#StrokeMask_11)" stroke="#000000" stroke-linecap="round" stroke-linejoin="round"
                stroke-width="37.3861" xlink:href="#Fill_11" />
        </g>
        <g opacity="1">
            <use fill="#04af04" fill-rule="nonzero" stroke="none" xlink:href="#Fill_12" />
            <mask height="116.11" id="StrokeMask_12" maskUnits="userSpaceOnUse" width="116.11" x="197.404" y="759.244">
                <rect fill="#ffffff" height="116.11" stroke="none" width="116.11" x="197.404" y="759.244" />
                <use fill="#000000" fill-rule="evenodd" stroke="none" xlink:href="#Fill_12" />
            </mask>
            <use fill="none" mask="url(#StrokeMask_12)" stroke="#000000" stroke-linecap="round" stroke-linejoin="round"
                stroke-width="34.8366" xlink:href="#Fill_12" />
        </g>
        <g opacity="1">
            <use fill="#ce00ff" fill-rule="nonzero" stroke="none" xlink:href="#Fill_13" />
            <mask height="141.459" id="StrokeMask_13" maskUnits="userSpaceOnUse" width="141.459" x="413.53" y="429.772">
                <rect fill="#ffffff" height="141.459" stroke="none" width="141.459" x="413.53" y="429.772" />
                <use fill="#000000" fill-rule="evenodd" stroke="none" xlink:href="#Fill_13" />
            </mask>
            <use fill="none" mask="url(#StrokeMask_13)" stroke="#000000" stroke-linecap="round" stroke-linejoin="round"
                stroke-width="37.0963" xlink:href="#Fill_13" />
        </g>
        <g opacity="1">
            <use fill="#04af04" fill-rule="nonzero" stroke="none" xlink:href="#Fill_14" />
            <mask height="107.604" id="StrokeMask_14" maskUnits="userSpaceOnUse" width="107.604" x="712.497"
                y="128.835">
                <rect fill="#ffffff" height="107.604" stroke="none" width="107.604" x="712.497" y="128.835" />
                <use fill="#000000" fill-rule="evenodd" stroke="none" xlink:href="#Fill_14" />
            </mask>
            <use fill="none" mask="url(#StrokeMask_14)" stroke="#000000" stroke-linecap="round" stroke-linejoin="round"
                stroke-width="32.1117" xlink:href="#Fill_14" />
        </g>
        <g opacity="1">
            <use fill="#006eff" fill-rule="nonzero" stroke="none" xlink:href="#Fill_15" />
            <mask height="127.255" id="StrokeMask_15" maskUnits="userSpaceOnUse" width="127.255" x="702.671"
                y="753.672">
                <rect fill="#ffffff" height="127.255" stroke="none" width="127.255" x="702.671" y="753.672" />
                <use fill="#000000" fill-rule="evenodd" stroke="none" xlink:href="#Fill_15" />
            </mask>
            <use fill="none" mask="url(#StrokeMask_15)" stroke="#000000" stroke-linecap="round" stroke-linejoin="round"
                stroke-width="40.619" xlink:href="#Fill_15" />
        </g>
    </g>
</svg>